<?xml version="1.0" standalone="no"?>
<!DOCTYPE svg PUBLIC "-//W3C//DTD SVG 20010904//EN"
 "http://www.w3.org/TR/2001/REC-SVG-20010904/DTD/svg10.dtd">
<svg version="1.0" xmlns="http://www.w3.org/2000/svg"
 width="512.000000pt" height="512.000000pt" viewBox="0 0 512.000000 512.000000"
 preserveAspectRatio="xMidYMid meet">
<metadata>
Created by potrace 1.14, written by Peter Selinger 2001-2017
</metadata>
<g transform="translate(0.000000,512.000000) scale(0.100000,-0.100000)"
fill="#000000" stroke="none">
<path d="M1114 4578 c-48 -10 -112 -61 -136 -109 -9 -19 -74 -162 -143 -319
-70 -157 -138 -309 -151 -338 -13 -29 -35 -79 -49 -112 -25 -60 -58 -134 -100
-225 -98 -214 -118 -270 -118 -330 1 -72 19 -119 68 -173 55 -62 110 -84 221
-90 109 -6 169 7 229 48 75 52 85 77 210 526 64 231 131 473 150 539 78 276
153 551 157 570 3 19 -3 20 -147 21 -82 0 -168 -3 -191 -8z"/>
<path d="M1630 4401 c-29 -102 -65 -233 -82 -291 -16 -58 -31 -112 -34 -120
-16 -64 -27 -103 -64 -235 -23 -82 -43 -157 -46 -165 -2 -8 -29 -105 -59 -215
-47 -166 -55 -209 -51 -253 10 -96 63 -170 151 -214 43 -22 66 -25 163 -27
141 -3 206 15 263 71 61 60 83 116 95 233 8 85 15 151 19 175 3 24 9 82 21
198 3 31 7 68 9 82 2 14 7 57 11 95 3 39 8 77 9 85 2 8 6 44 10 80 3 36 8 82
11 103 2 20 6 54 8 75 3 20 8 66 11 102 4 36 8 72 10 80 2 8 6 49 9 91 4 42 9
87 11 100 2 13 6 49 10 80 l6 56 -220 0 -219 -1 -52 -185z"/>
<path d="M2334 4575 c-2 -8 -25 -213 -39 -350 -5 -58 -17 -163 -20 -185 -2
-14 -7 -52 -10 -85 -3 -33 -10 -94 -15 -135 -5 -41 -12 -102 -15 -135 -3 -33
-8 -73 -10 -90 -2 -16 -7 -57 -10 -90 -7 -67 -13 -121 -24 -209 -12 -91 -4
-171 24 -229 30 -61 46 -82 100 -123 70 -53 111 -63 253 -61 114 2 133 5 182
28 106 50 180 159 183 267 1 54 -8 183 -17 227 -2 12 -7 52 -10 90 -4 39 -9
84 -11 100 -2 17 -7 57 -10 90 -4 33 -8 74 -10 90 -2 17 -7 57 -10 90 -3 33
-8 74 -10 90 -3 17 -8 57 -11 90 -3 33 -7 71 -9 85 -3 29 -13 123 -21 200 -3
30 -7 66 -9 80 -2 14 -7 52 -10 85 -4 33 -9 67 -11 76 -4 14 -31 16 -225 16
-145 -1 -222 -5 -225 -12z"/>
<path d="M3004 4578 c-3 -5 -3 -21 0 -36 3 -15 8 -63 11 -107 4 -44 8 -82 10
-85 1 -3 6 -41 10 -85 4 -44 8 -82 10 -85 2 -3 6 -39 9 -80 3 -41 8 -86 10
-100 3 -14 7 -54 10 -90 4 -36 8 -76 10 -90 3 -14 7 -54 11 -90 3 -36 8 -78
10 -95 2 -16 7 -55 10 -85 3 -30 7 -71 10 -90 2 -19 6 -62 10 -95 3 -33 8 -73
10 -90 2 -16 7 -57 10 -90 14 -134 47 -205 119 -255 59 -40 126 -53 254 -48
88 3 115 7 152 27 92 47 144 130 145 231 0 65 -16 125 -196 760 -31 111 -61
220 -94 340 -18 67 -48 174 -60 215 -8 28 -19 68 -24 91 l-11 40 -215 0 c-119
0 -218 -3 -221 -8z"/>
<path d="M3666 4583 c-2 -3 0 -19 5 -36 6 -18 12 -39 14 -47 3 -15 325 -1176
350 -1265 8 -27 24 -84 36 -125 25 -88 63 -146 116 -181 61 -41 97 -48 211
-46 87 2 115 7 153 25 97 47 152 134 152 237 0 61 -12 97 -89 263 -19 41 -34
75 -34 77 0 2 -13 32 -29 67 -16 35 -55 122 -86 193 -32 72 -68 153 -80 180
-13 28 -48 106 -78 175 -58 134 -87 198 -146 325 -37 80 -78 126 -130 148 -25
10 -356 19 -365 10z"/>
<path d="M2030 2809 c-66 -67 -179 -126 -261 -135 -89 -11 -263 -7 -320 6 -77
18 -166 67 -227 126 l-53 51 -53 -52 c-84 -84 -204 -134 -328 -137 l-43 0 2
-1012 c0 -556 2 -1021 2 -1033 1 -13 14 -37 30 -55 l29 -33 234 0 233 0 3 817
2 817 34 35 33 36 457 0 c492 0 498 -1 528 -53 10 -17 13 -194 14 -837 l1
-815 982 0 983 0 29 33 c16 18 29 45 30 60 3 84 4 2010 1 2023 -3 11 -16 16
-50 17 -118 4 -234 54 -319 138 l-52 52 -48 -48 c-57 -57 -157 -113 -233 -131
-79 -18 -301 -15 -371 5 -76 22 -165 77 -216 131 -23 25 -45 45 -50 45 -4 0
-30 -22 -57 -50 -51 -51 -164 -114 -226 -125 -96 -18 -133 -21 -220 -18 -178
4 -304 54 -410 163 l-35 36 -55 -57z m1777 -602 l28 -27 3 -460 c3 -510 3
-508 -61 -534 -46 -19 -812 -17 -844 2 -52 29 -53 36 -53 526 l0 455 34 36 34
36 416 -3 416 -3 27 -28z"/>
</g>
</svg>
